<mxfile modified="2021-04-11T17:01:04.120Z" host="app.diagrams.net" agent="5.0 (Macintosh; Intel Mac OS X 10_15_7) AppleWebKit/537.36 (KHTML, like Gecko) Chrome/89.0.4389.114 Safari/537.36" etag="JH8-W_EYJCWcmrsT3KWU" version="14.5.10" type="github">
  <diagram id="f106602c-feb2-e66a-4537-3a34d633f6aa" name="Page-1">
    <mxGraphModel dx="1678" dy="771" grid="0" gridSize="10" guides="1" tooltips="1" connect="1" arrows="1" fold="1" page="1" pageScale="1" pageWidth="1169" pageHeight="827" background="#ffffff" math="0" shadow="0">
      <root>
        <mxCell id="0" />
        <mxCell id="1" parent="0" />
        <mxCell id="Xia8TUtR7QgbiRvDQSHb-1038" value="Wallet" style="points=[[0,0,0],[0.25,0,0],[0.5,0,0],[0.75,0,0],[1,0,0],[1,0.25,0],[1,0.5,0],[1,0.75,0],[1,1,0],[0.75,1,0],[0.5,1,0],[0.25,1,0],[0,1,0],[0,0.75,0],[0,0.5,0],[0,0.25,0]];rounded=1;absoluteArcSize=1;arcSize=2;html=1;strokeColor=#56517e;shadow=0;dashed=0;fontSize=14;align=center;verticalAlign=top;spacing=10;spacingTop=-4;fillColor=#d0cee2;strokeWidth=2;" parent="1" vertex="1">
          <mxGeometry x="395.03135135135136" y="386.64497041420117" width="449.7063783783784" height="106.50887573964496" as="geometry" />
        </mxCell>
        <mxCell id="Xia8TUtR7QgbiRvDQSHb-1060" value="Marketplace App" style="points=[[0,0,0],[0.25,0,0],[0.5,0,0],[0.75,0,0],[1,0,0],[1,0.25,0],[1,0.5,0],[1,0.75,0],[1,1,0],[0.75,1,0],[0.5,1,0],[0.25,1,0],[0,1,0],[0,0.75,0],[0,0.5,0],[0,0.25,0]];rounded=1;absoluteArcSize=1;arcSize=2;html=1;shadow=0;dashed=0;fontSize=14;align=center;verticalAlign=top;spacing=10;spacingTop=-4;fillColor=#b0e3e6;strokeColor=#0e8088;strokeWidth=2;" parent="1" vertex="1">
          <mxGeometry x="158.34378378378378" y="445.8165680473373" width="165.6812972972973" height="201.18343195266272" as="geometry" />
        </mxCell>
        <mxCell id="ODiTWqgWh26u66qIhI0O-1039" style="edgeStyle=orthogonalEdgeStyle;rounded=0;orthogonalLoop=1;jettySize=auto;html=1;exitX=0.5;exitY=0;exitDx=0;exitDy=0;exitPerimeter=0;entryX=0.5;entryY=1;entryDx=0;entryDy=0;entryPerimeter=0;endArrow=none;endFill=0;dashed=0;fontSize=12;align=left;strokeColor=#6C8EBF;strokeWidth=2;labelBackgroundColor=none;startFill=1;" edge="1" parent="1" source="Xia8TUtR7QgbiRvDQSHb-1017" target="Xia8TUtR7QgbiRvDQSHb-1038">
          <mxGeometry x="40" y="147" as="geometry" />
        </mxCell>
        <mxCell id="Xia8TUtR7QgbiRvDQSHb-1017" value="Marketplace" style="points=[[0,0,0],[0.25,0,0],[0.5,0,0],[0.75,0,0],[1,0,0],[1,0.25,0],[1,0.5,0],[1,0.75,0],[1,1,0],[0.75,1,0],[0.5,1,0],[0.25,1,0],[0,1,0],[0,0.75,0],[0,0.5,0],[0,0.25,0]];rounded=1;absoluteArcSize=1;arcSize=2;html=1;shadow=0;dashed=0;fontSize=14;align=center;verticalAlign=top;spacing=10;spacingTop=-4;fillColor=#b0e3e6;strokeColor=#0e8088;strokeWidth=2;" parent="1" vertex="1">
          <mxGeometry x="395.03135135135136" y="528.6568047337278" width="449.7063783783784" height="118.34319526627219" as="geometry" />
        </mxCell>
        <mxCell id="Xia8TUtR7QgbiRvDQSHb-1018" value="Backend" style="rounded=1;whiteSpace=wrap;html=1;fillColor=#ffffff;shadow=1;fontSize=14;strokeWidth=1;arcSize=2;strokeColor=#B3B3B3;" parent="1" vertex="1">
          <mxGeometry x="418.7001081081081" y="571.5562130177515" width="118.34378378378378" height="44.378698224852066" as="geometry" />
        </mxCell>
        <mxCell id="Xia8TUtR7QgbiRvDQSHb-1056" value="Ticketing App" style="points=[[0,0,0],[0.25,0,0],[0.5,0,0],[0.75,0,0],[1,0,0],[1,0.25,0],[1,0.5,0],[1,0.75,0],[1,1,0],[0.75,1,0],[0.5,1,0],[0.25,1,0],[0,1,0],[0,0.75,0],[0,0.5,0],[0,0.25,0]];rounded=1;absoluteArcSize=1;arcSize=2;html=1;shadow=0;dashed=0;fontSize=14;align=center;verticalAlign=top;spacing=10;spacingTop=-4;fillColor=#b1ddf0;strokeColor=#10739e;strokeWidth=2;" parent="1" vertex="1">
          <mxGeometry x="158.34378378378378" y="147" width="165.6812972972973" height="201.18343195266272" as="geometry" />
        </mxCell>
        <mxCell id="Xia8TUtR7QgbiRvDQSHb-1057" value="E-commerce&lt;br style=&quot;font-size: 14px;&quot;&gt;Frontend" style="rounded=1;whiteSpace=wrap;html=1;fillColor=#ffffff;shadow=1;fontSize=14;strokeColor=#B3B3B3;strokeWidth=1;arcSize=2;" parent="1" vertex="1">
          <mxGeometry x="182.01254054054056" y="194.33727810650888" width="118.34378378378378" height="59.171597633136095" as="geometry" />
        </mxCell>
        <mxCell id="Xia8TUtR7QgbiRvDQSHb-1058" value="Embedded&lt;br style=&quot;font-size: 14px;&quot;&gt;Wallet" style="rounded=1;whiteSpace=wrap;html=1;fillColor=#ffffff;shadow=1;fontSize=14;strokeColor=#B3B3B3;strokeWidth=1;arcSize=2;" parent="1" vertex="1">
          <mxGeometry x="182.01254054054056" y="265.3431952662722" width="118.34378378378378" height="59.171597633136095" as="geometry" />
        </mxCell>
        <mxCell id="ODiTWqgWh26u66qIhI0O-1038" style="edgeStyle=orthogonalEdgeStyle;rounded=0;orthogonalLoop=1;jettySize=auto;html=1;exitX=0.5;exitY=1;exitDx=0;exitDy=0;exitPerimeter=0;entryX=0.5;entryY=0;entryDx=0;entryDy=0;entryPerimeter=0;endArrow=none;endFill=0;dashed=0;fontSize=12;align=left;strokeColor=#6C8EBF;strokeWidth=2;labelBackgroundColor=none;startFill=1;" edge="1" parent="1" source="Xia8TUtR7QgbiRvDQSHb-1001" target="Xia8TUtR7QgbiRvDQSHb-1038">
          <mxGeometry x="40" y="147" as="geometry" />
        </mxCell>
        <mxCell id="Xia8TUtR7QgbiRvDQSHb-1001" value="Ticketing Backend" style="points=[[0,0,0],[0.25,0,0],[0.5,0,0],[0.75,0,0],[1,0,0],[1,0.25,0],[1,0.5,0],[1,0.75,0],[1,1,0],[0.75,1,0],[0.5,1,0],[0.25,1,0],[0,1,0],[0,0.75,0],[0,0.5,0],[0,0.25,0]];rounded=1;absoluteArcSize=1;arcSize=2;html=1;shadow=0;dashed=0;fontSize=14;align=center;verticalAlign=top;spacing=10;spacingTop=-4;fillColor=#b1ddf0;strokeColor=#10739e;strokeWidth=2;" parent="1" vertex="1">
          <mxGeometry x="395.03135135135136" y="147" width="449.7063783783784" height="201.18343195266272" as="geometry" />
        </mxCell>
        <mxCell id="ODiTWqgWh26u66qIhI0O-1012" style="edgeStyle=orthogonalEdgeStyle;rounded=0;orthogonalLoop=1;jettySize=auto;html=1;entryX=-0.006;entryY=0.383;entryDx=0;entryDy=0;entryPerimeter=0;fontColor=#000000;endArrow=none;endFill=0;dashed=0;fontSize=12;align=left;strokeColor=#6C8EBF;strokeWidth=2;labelBackgroundColor=none;startFill=1;" edge="1" parent="1" source="Xia8TUtR7QgbiRvDQSHb-1057" target="Xia8TUtR7QgbiRvDQSHb-1001">
          <mxGeometry x="40" y="147" as="geometry" />
        </mxCell>
        <mxCell id="Xia8TUtR7QgbiRvDQSHb-1009" value="Event&lt;br style=&quot;font-size: 14px;&quot;&gt;Management" style="rounded=1;whiteSpace=wrap;html=1;shadow=1;fontSize=14;strokeWidth=1;arcSize=2;strokeColor=#B3B3B3;" parent="1" vertex="1">
          <mxGeometry x="418.7001081081081" y="194.33727810650888" width="118.34378378378378" height="50.29585798816568" as="geometry" />
        </mxCell>
        <mxCell id="Xia8TUtR7QgbiRvDQSHb-1010" value="Seating" style="rounded=1;whiteSpace=wrap;html=1;fillColor=#ffffff;shadow=1;fontSize=14;strokeWidth=1;arcSize=2;strokeColor=#B3B3B3;" parent="1" vertex="1">
          <mxGeometry x="554.7954594594595" y="194.33727810650888" width="118.34378378378378" height="50.29585798816568" as="geometry" />
        </mxCell>
        <mxCell id="Xia8TUtR7QgbiRvDQSHb-1012" value="E-commerce&lt;br style=&quot;font-size: 14px;&quot;&gt;Backend" style="rounded=1;whiteSpace=wrap;html=1;fillColor=#ffffff;shadow=1;fontSize=14;strokeWidth=1;arcSize=2;strokeColor=#B3B3B3;" parent="1" vertex="1">
          <mxGeometry x="418.7001081081081" y="265.3431952662722" width="118.34378378378378" height="53.25443786982248" as="geometry" />
        </mxCell>
        <mxCell id="Xia8TUtR7QgbiRvDQSHb-1015" value="Marketing&lt;br style=&quot;font-size: 14px;&quot;&gt;&amp;amp; CRM" style="rounded=1;whiteSpace=wrap;html=1;fillColor=#ffffff;shadow=1;fontSize=14;strokeWidth=1;arcSize=2;strokeColor=#B3B3B3;" parent="1" vertex="1">
          <mxGeometry x="554.7954594594595" y="265.3431952662722" width="118.34378378378378" height="53.25443786982248" as="geometry" />
        </mxCell>
        <mxCell id="Xia8TUtR7QgbiRvDQSHb-1016" value="Access Control" style="rounded=1;whiteSpace=wrap;html=1;fillColor=#ffffff;shadow=1;fontSize=14;strokeWidth=1;arcSize=2;strokeColor=#B3B3B3;" parent="1" vertex="1">
          <mxGeometry x="690.8908108108108" y="194.33727810650888" width="118.34378378378378" height="50.29585798816568" as="geometry" />
        </mxCell>
        <mxCell id="ODiTWqgWh26u66qIhI0O-1017" value="" style="rounded=0;orthogonalLoop=1;jettySize=auto;html=1;fontColor=#000000;endArrow=none;endFill=0;dashed=1;" edge="1" parent="1" source="ODiTWqgWh26u66qIhI0O-1013" target="Xia8TUtR7QgbiRvDQSHb-1056">
          <mxGeometry x="40" y="147" as="geometry">
            <mxPoint x="111.00627027027028" y="303.8047337278106" as="targetPoint" />
          </mxGeometry>
        </mxCell>
        <mxCell id="ODiTWqgWh26u66qIhI0O-1013" value="Ticket&lt;br&gt;Buyer / Seller" style="shape=umlActor;verticalLabelPosition=bottom;verticalAlign=top;html=1;outlineConnect=0;fontColor=#000000;strokeColor=#000000;fillColor=none;align=center;labelPosition=center;fontSize=14;" vertex="1" parent="1">
          <mxGeometry x="62" y="212.0887573964497" width="35.50313513513514" height="71.0059171597633" as="geometry" />
        </mxCell>
        <mxCell id="ODiTWqgWh26u66qIhI0O-1046" value="" style="rounded=0;orthogonalLoop=1;jettySize=auto;html=1;endArrow=none;endFill=0;dashed=1;" edge="1" parent="1" source="ODiTWqgWh26u66qIhI0O-1029" target="Xia8TUtR7QgbiRvDQSHb-1060">
          <mxGeometry x="40" y="147" as="geometry" />
        </mxCell>
        <mxCell id="ODiTWqgWh26u66qIhI0O-1029" value="Ticket&lt;br&gt;Buyer" style="shape=umlActor;verticalLabelPosition=bottom;verticalAlign=top;html=1;outlineConnect=0;fontColor=#000000;strokeColor=#000000;fillColor=none;align=center;fontSize=14;" vertex="1" parent="1">
          <mxGeometry x="62" y="510.905325443787" width="35.50313513513514" height="71.0059171597633" as="geometry" />
        </mxCell>
        <mxCell id="ODiTWqgWh26u66qIhI0O-1053" value="" style="edgeStyle=none;rounded=0;orthogonalLoop=1;jettySize=auto;html=1;fontColor=#000000;endArrow=none;endFill=0;dashed=1;entryX=1.002;entryY=0.185;entryDx=0;entryDy=0;entryPerimeter=0;" edge="1" parent="1" source="ODiTWqgWh26u66qIhI0O-1030" target="Xia8TUtR7QgbiRvDQSHb-1001">
          <mxGeometry x="40" y="147" as="geometry" />
        </mxCell>
        <mxCell id="ODiTWqgWh26u66qIhI0O-1030" value="Event&lt;br&gt;Organizer" style="shape=umlActor;verticalLabelPosition=middle;verticalAlign=middle;html=1;outlineConnect=0;fontColor=#000000;strokeColor=#000000;fillColor=none;align=left;labelPosition=right;fontSize=14;spacingLeft=10;" vertex="1" parent="1">
          <mxGeometry x="915.744" y="147" width="35.50313513513514" height="71.0059171597633" as="geometry" />
        </mxCell>
        <mxCell id="ODiTWqgWh26u66qIhI0O-1041" style="edgeStyle=orthogonalEdgeStyle;rounded=0;orthogonalLoop=1;jettySize=auto;html=1;entryX=0.003;entryY=0.561;entryDx=0;entryDy=0;entryPerimeter=0;endArrow=none;endFill=0;dashed=0;fontSize=12;align=left;strokeColor=#6C8EBF;strokeWidth=2;labelBackgroundColor=none;startFill=1;" edge="1" parent="1" source="Xia8TUtR7QgbiRvDQSHb-1061" target="Xia8TUtR7QgbiRvDQSHb-1017">
          <mxGeometry x="40" y="147" as="geometry">
            <Array as="points">
              <mxPoint x="324.0250810810811" y="594.9289940828402" />
              <mxPoint x="324.0250810810811" y="594.9289940828402" />
            </Array>
          </mxGeometry>
        </mxCell>
        <mxCell id="Xia8TUtR7QgbiRvDQSHb-1061" value="Marketplace&lt;br style=&quot;font-size: 14px;&quot;&gt;Frontend" style="rounded=1;whiteSpace=wrap;html=1;fillColor=#ffffff;shadow=1;fontSize=14;strokeColor=#B3B3B3;strokeWidth=1;arcSize=2;" parent="1" vertex="1">
          <mxGeometry x="182.01254054054056" y="564.1597633136093" width="118.34378378378378" height="59.171597633136095" as="geometry" />
        </mxCell>
        <mxCell id="Xia8TUtR7QgbiRvDQSHb-1062" value="Embedded&lt;br style=&quot;font-size: 14px;&quot;&gt;Wallet" style="rounded=1;whiteSpace=wrap;html=1;fillColor=#ffffff;shadow=1;fontSize=14;strokeColor=#B3B3B3;strokeWidth=1;arcSize=2;" parent="1" vertex="1">
          <mxGeometry x="182.01254054054056" y="490.1952662721893" width="118.34378378378378" height="59.171597633136095" as="geometry" />
        </mxCell>
        <mxCell id="ODiTWqgWh26u66qIhI0O-1064" style="edgeStyle=orthogonalEdgeStyle;rounded=0;orthogonalLoop=1;jettySize=auto;html=1;exitX=1;exitY=0.5;exitDx=0;exitDy=0;exitPerimeter=0;fontColor=#000000;endArrow=none;endFill=0;dashed=0;fontSize=12;align=left;strokeColor=#6C8EBF;strokeWidth=2;labelBackgroundColor=none;startFill=1;" edge="1" parent="1" source="Xia8TUtR7QgbiRvDQSHb-1038">
          <mxGeometry x="40" y="147" as="geometry">
            <mxPoint x="892.0752432432432" y="410.3136094674556" as="targetPoint" />
            <Array as="points">
              <mxPoint x="880.2408648648649" y="439.89940828402365" />
              <mxPoint x="880.2408648648649" y="410.3136094674556" />
            </Array>
          </mxGeometry>
        </mxCell>
        <mxCell id="Xia8TUtR7QgbiRvDQSHb-1039" value="API" style="rounded=1;whiteSpace=wrap;html=1;fillColor=#ffffff;shadow=1;fontSize=14;strokeWidth=1;arcSize=2;strokeColor=#B3B3B3;" parent="1" vertex="1">
          <mxGeometry x="418.7001081081081" y="426.28994082840234" width="118.34378378378378" height="46.153846153846146" as="geometry" />
        </mxCell>
        <mxCell id="ODiTWqgWh26u66qIhI0O-1008" style="edgeStyle=orthogonalEdgeStyle;rounded=0;orthogonalLoop=1;jettySize=auto;html=1;fontColor=#000000;endArrow=none;endFill=0;dashed=0;fontSize=12;align=left;strokeColor=#6C8EBF;strokeWidth=2;labelBackgroundColor=none;startFill=1;entryX=0;entryY=0.5;entryDx=0;entryDy=0;" edge="1" parent="1" source="Xia8TUtR7QgbiRvDQSHb-1058" target="Xia8TUtR7QgbiRvDQSHb-1039">
          <mxGeometry x="40" y="147" as="geometry">
            <mxPoint x="418.7001081081081" y="445.8165680473373" as="targetPoint" />
            <Array as="points">
              <mxPoint x="359.5282162162162" y="295.5207100591716" />
              <mxPoint x="359.5282162162162" y="449.36686390532543" />
            </Array>
          </mxGeometry>
        </mxCell>
        <mxCell id="ODiTWqgWh26u66qIhI0O-1010" style="edgeStyle=orthogonalEdgeStyle;rounded=0;orthogonalLoop=1;jettySize=auto;html=1;entryX=0;entryY=0.5;entryDx=0;entryDy=0;fontColor=#000000;endArrow=none;endFill=0;dashed=0;fontSize=12;align=left;strokeColor=#6C8EBF;strokeWidth=2;labelBackgroundColor=none;startFill=1;" edge="1" parent="1" source="Xia8TUtR7QgbiRvDQSHb-1062" target="Xia8TUtR7QgbiRvDQSHb-1039">
          <mxGeometry x="40" y="147" as="geometry">
            <Array as="points">
              <mxPoint x="359.5282162162162" y="516.8224852071005" />
              <mxPoint x="359.5282162162162" y="449.36686390532543" />
            </Array>
          </mxGeometry>
        </mxCell>
        <mxCell id="ODiTWqgWh26u66qIhI0O-1009" value="Backend" style="rounded=1;whiteSpace=wrap;html=1;fillColor=#ffffff;shadow=1;fontSize=14;strokeWidth=1;arcSize=2;strokeColor=#B3B3B3;" vertex="1" parent="1">
          <mxGeometry x="554.7954594594595" y="426.28994082840234" width="118.34378378378378" height="46.153846153846146" as="geometry" />
        </mxCell>
        <mxCell id="ODiTWqgWh26u66qIhI0O-1061" value="" style="group" vertex="1" connectable="0" parent="1">
          <mxGeometry x="921.6611891891893" y="362.9763313609467" width="213.0188108108108" height="94.67455621301774" as="geometry" />
        </mxCell>
        <mxCell id="ODiTWqgWh26u66qIhI0O-1055" value="" style="shape=table;html=1;whiteSpace=wrap;startSize=0;container=1;collapsible=0;childLayout=tableLayout;strokeColor=#b46504;fillColor=#fad7ac;strokeWidth=2;fontSize=14;" vertex="1" parent="ODiTWqgWh26u66qIhI0O-1061">
          <mxGeometry x="35.50313513513514" width="177.51567567567568" height="94.67455621301774" as="geometry" />
        </mxCell>
        <mxCell id="ODiTWqgWh26u66qIhI0O-1056" value="" style="shape=partialRectangle;html=1;whiteSpace=wrap;collapsible=0;dropTarget=0;pointerEvents=0;fillColor=none;top=0;left=0;bottom=0;right=0;points=[[0,0.5],[1,0.5]];portConstraint=eastwest;" vertex="1" parent="ODiTWqgWh26u66qIhI0O-1055">
          <mxGeometry width="177.51567567567568" height="47" as="geometry" />
        </mxCell>
        <mxCell id="ODiTWqgWh26u66qIhI0O-1057" value="Smart contracts" style="shape=partialRectangle;html=1;whiteSpace=wrap;connectable=0;overflow=hidden;fillColor=none;top=0;left=0;bottom=0;right=0;fontSize=14;" vertex="1" parent="ODiTWqgWh26u66qIhI0O-1056">
          <mxGeometry width="178" height="47" as="geometry" />
        </mxCell>
        <mxCell id="ODiTWqgWh26u66qIhI0O-1058" value="" style="shape=partialRectangle;html=1;whiteSpace=wrap;collapsible=0;dropTarget=0;pointerEvents=0;fillColor=none;top=0;left=0;bottom=0;right=0;points=[[0,0.5],[1,0.5]];portConstraint=eastwest;" vertex="1" parent="ODiTWqgWh26u66qIhI0O-1055">
          <mxGeometry y="47" width="177.51567567567568" height="48" as="geometry" />
        </mxCell>
        <mxCell id="ODiTWqgWh26u66qIhI0O-1059" value="Blockchain" style="shape=partialRectangle;html=1;whiteSpace=wrap;connectable=0;overflow=hidden;fillColor=none;top=0;left=0;bottom=0;right=0;fontSize=14;" vertex="1" parent="ODiTWqgWh26u66qIhI0O-1058">
          <mxGeometry width="178" height="48" as="geometry" />
        </mxCell>
        <mxCell id="ODiTWqgWh26u66qIhI0O-1060" value="API" style="rounded=1;whiteSpace=wrap;html=1;align=center;labelBorderColor=none;rotation=-90;shadow=0;fontSize=14;strokeWidth=2;arcSize=2;strokeColor=#b46504;fillColor=#FFFFFF;" vertex="1" parent="ODiTWqgWh26u66qIhI0O-1061">
          <mxGeometry x="-29.585945945945944" y="29.585798816568044" width="94.67502702702703" height="35.50295857988164" as="geometry" />
        </mxCell>
        <mxCell id="ODiTWqgWh26u66qIhI0O-1063" style="edgeStyle=orthogonalEdgeStyle;rounded=0;orthogonalLoop=1;jettySize=auto;html=1;exitX=1;exitY=0.5;exitDx=0;exitDy=0;exitPerimeter=0;entryX=0.5;entryY=0;entryDx=0;entryDy=0;fontColor=#000000;endArrow=none;endFill=0;dashed=0;fontSize=12;align=left;strokeColor=#6C8EBF;strokeWidth=2;labelBackgroundColor=none;startFill=1;" edge="1" parent="1" source="Xia8TUtR7QgbiRvDQSHb-1017" target="ODiTWqgWh26u66qIhI0O-1060">
          <mxGeometry x="40" y="147" as="geometry">
            <Array as="points">
              <mxPoint x="880.2408648648649" y="586.6449704142012" />
              <mxPoint x="880.2408648648649" y="410.3136094674556" />
            </Array>
          </mxGeometry>
        </mxCell>
        <mxCell id="ODiTWqgWh26u66qIhI0O-1065" style="edgeStyle=orthogonalEdgeStyle;rounded=0;orthogonalLoop=1;jettySize=auto;html=1;exitX=1;exitY=0.5;exitDx=0;exitDy=0;exitPerimeter=0;entryX=0.5;entryY=0;entryDx=0;entryDy=0;fontColor=#000000;endArrow=none;endFill=0;dashed=0;fontSize=12;align=left;strokeColor=#6C8EBF;strokeWidth=2;labelBackgroundColor=none;startFill=1;" edge="1" parent="1" source="Xia8TUtR7QgbiRvDQSHb-1001" target="ODiTWqgWh26u66qIhI0O-1060">
          <mxGeometry x="40" y="147" as="geometry">
            <Array as="points">
              <mxPoint x="880.2408648648649" y="248.18343195266272" />
              <mxPoint x="880.2408648648649" y="410.3136094674556" />
            </Array>
          </mxGeometry>
        </mxCell>
      </root>
    </mxGraphModel>
  </diagram>
</mxfile>
